<?xml version="1.0" standalone="no"?><!DOCTYPE svg PUBLIC "-//W3C//DTD SVG 1.1//EN" "http://www.w3.org/Graphics/SVG/1.1/DTD/svg11.dtd"><svg t="1626937095576" class="icon" viewBox="0 0 1024 1024" version="1.1" xmlns="http://www.w3.org/2000/svg" p-id="4218" xmlns:xlink="http://www.w3.org/1999/xlink" width="200" height="200"><defs><style type="text/css">@font-face { font-family: feedback-iconfont; src: url("//at.alicdn.com/t/font_1031158_1uhr8ri0pk5.eot?#iefix") format("embedded-opentype"), url("//at.alicdn.com/t/font_1031158_1uhr8ri0pk5.woff2") format("woff2"), url("//at.alicdn.com/t/font_1031158_1uhr8ri0pk5.woff") format("woff"), url("//at.alicdn.com/t/font_1031158_1uhr8ri0pk5.ttf") format("truetype"), url("//at.alicdn.com/t/font_1031158_1uhr8ri0pk5.svg#iconfont") format("svg"); }
</style></defs><path d="M426.542817 0.599756h170.530695C710.527404-1.899228 833.477436 32.886635 911.045912 112.954095c80.167419 77.568476 114.853323 200.518508 112.454298 313.972399v170.530696c2.399025 113.453892-32.286878 236.403924-112.454298 313.972399-77.568476 80.167419-200.518508 114.853323-313.9724 112.454298H426.542817c-113.453892 2.399025-236.403924-32.286878-313.9724-112.454298C32.402998 833.961073-2.282906 711.011041 0.116119 597.557149V427.026454C-2.282906 313.472603 32.402998 190.52257 112.570417 112.954095 190.138893 32.886635 313.088925-1.899228 426.542817 0.599756z" fill="#0EDCC6" p-id="4219"></path><path d="M112.570417 112.954095C36.90117 186.224317 1.715469 299.878128 0.116119 407.834254c137.943939 0 249.79848-111.954501 249.798481-249.89844 0-42.782613-10.795613-83.066241-29.687935-118.251942-40.583507 17.892728-77.568476 42.182857-107.656248 73.270223z" fill="#FFFFFF" opacity=".5" p-id="4220"></path><path d="M760.906929 426.526657L480.121042 707.312544c-5.097928 5.097928-11.295409 8.996344-18.092647 11.495328L282.901194 782.382035c-26.189356 9.296222-51.479079-16.193419-41.882979-42.282816l65.073554-177.527852c2.399025-6.697278 6.297441-12.694841 11.295409-17.692809l280.885847-280.985806c31.887041-31.887041 83.665998-31.687122 115.752957 0.399838l46.48111 46.48111c32.08696 31.987 32.286878 83.865916 0.399837 115.752957zM429.441639 688.220303l-92.96222-92.96222c-6.3974-6.3974-16.793175-6.3974-23.190575 0-6.3974 6.3974-6.3974 16.793175 0 23.190576l92.96222 92.962219c6.3974 6.3974 16.793175 6.3974 23.190575 0 6.3974-6.3974 6.3974-16.793175 0-23.190575z" fill="#FFFFFF" p-id="4221"></path><path d="M714.025982 264.29259c-28.688341-28.688341-73.270223-31.787082-105.157263-9.296222 20.991469 78.268191 80.06746 140.94272 156.236504 166.932158 27.488828-32.08696 25.989438-80.567257-4.598131-111.154826l-46.48111-46.48111zM282.901194 782.382035l141.842354-50.479485c-18.592444-21.391306-46.081272-34.885822-76.668841-34.885822-48.08046 0-88.264129 33.386432-98.859823 78.168232 8.496547 7.99675 20.991469 11.795206 33.68631 7.197075z" fill="#0EDCC6" opacity=".5" p-id="4222"></path></svg>